<svg width="71" height="71" viewBox="0 0 71 71" fill="none" xmlns="http://www.w3.org/2000/svg">
<g filter="url(#filter0_d_54_1165)">
<circle cx="35.5" cy="31.5" r="31.5" fill="white"/>
</g>
<path d="M28.61 20.05L27.9396 22H23.125C20.8498 22 19 23.7937 19 26V42C19 44.2062 20.8498 46 23.125 46H47.875C50.1502 46 52 44.2062 52 42V26C52 23.7937 50.1502 22 47.875 22H43.0604L42.39 20.05C41.9711 18.825 40.7916 18 39.4574 18H31.5426C30.2084 18 29.0289 18.825 28.61 20.05ZM35.5 28C37.141 28 38.7148 28.6321 39.8752 29.7574C41.0356 30.8826 41.6875 32.4087 41.6875 34C41.6875 35.5913 41.0356 37.1174 39.8752 38.2426C38.7148 39.3679 37.141 40 35.5 40C33.859 40 32.2852 39.3679 31.1248 38.2426C29.9644 37.1174 29.3125 35.5913 29.3125 34C29.3125 32.4087 29.9644 30.8826 31.1248 29.7574C32.2852 28.6321 33.859 28 35.5 28Z" fill="#74C0FC"/>
<defs>
<filter id="filter0_d_54_1165" x="0" y="0" width="71" height="71" filterUnits="userSpaceOnUse" color-interpolation-filters="sRGB">
<feFlood flood-opacity="0" result="BackgroundImageFix"/>
<feColorMatrix in="SourceAlpha" type="matrix" values="0 0 0 0 0 0 0 0 0 0 0 0 0 0 0 0 0 0 127 0" result="hardAlpha"/>
<feOffset dy="4"/>
<feGaussianBlur stdDeviation="2"/>
<feComposite in2="hardAlpha" operator="out"/>
<feColorMatrix type="matrix" values="0 0 0 0 0 0 0 0 0 0 0 0 0 0 0 0 0 0 0.25 0"/>
<feBlend mode="normal" in2="BackgroundImageFix" result="effect1_dropShadow_54_1165"/>
<feBlend mode="normal" in="SourceGraphic" in2="effect1_dropShadow_54_1165" result="shape"/>
</filter>
</defs>
</svg>
